<svg width="23" height="23" viewBox="0 0 23 23" fill="none" xmlns="http://www.w3.org/2000/svg">
<path d="M10.2521 14.8272L6.60166 11.1962M6.60166 11.1962L10.2521 7.56522M6.60166 11.1962H19.3784M14.8152 14.8272V15.735C14.8152 16.4572 14.5268 17.1499 14.0133 17.6606C13.4999 18.1713 12.8035 18.4582 12.0774 18.4582H5.68904C4.96291 18.4582 4.26652 18.1713 3.75307 17.6606C3.23962 17.1499 2.95117 16.4572 2.95117 15.735V6.65746C2.95117 5.93521 3.23962 5.24254 3.75307 4.73183C4.26652 4.22112 4.96291 3.9342 5.68904 3.9342H12.0774C12.8035 3.9342 13.4999 4.22112 14.0133 4.73183C14.5268 5.24254 14.8152 5.93521 14.8152 6.65746V7.56522" stroke="#060678" stroke-width="2" stroke-linecap="round" stroke-linejoin="round"/>
</svg>
